<svg version="1.1" id="Layer_1" xmlns="http://www.w3.org/2000/svg" xmlns:xlink="http://www.w3.org/1999/xlink" x="0px" y="0px"
	 width="100%" viewBox="0 0 720 1024" enable-background="new 0 0 720 1024" xml:space="preserve">
<path fill="#FFFFFF" opacity="1.000000" stroke="none" 
	d="
M251.336578,325.253418 
	C355.591919,263.984314 487.765503,297.957642 549.156311,399.339722 
	C613.489929,505.581635 576.789978,637.592773 477.511353,698.625549 
	C371.939850,763.526978 237.397751,728.242004 175.765884,625.288330 
	C113.448792,521.190002 147.123993,387.731384 251.336578,325.253418 
M253.499146,403.165344 
	C241.814377,403.165344 230.129593,403.165344 218.444824,403.165344 
	C219.945114,405.299805 221.625580,406.332031 223.224228,407.478363 
	C229.943115,412.296356 238.902435,414.378052 242.349503,423.250061 
	C242.693848,424.136353 244.173538,424.630493 245.185852,425.200989 
	C260.275787,433.705200 275.386627,442.172424 290.463867,450.699066 
	C293.304840,452.305725 296.257568,452.960022 299.523254,452.984650 
	C310.680450,453.068726 321.837311,453.319794 332.991913,453.551758 
	C369.298309,454.306763 405.616180,454.499664 441.928772,454.976990 
	C444.708557,455.013519 447.142120,454.394623 449.519623,453.009979 
	C462.186340,445.632996 474.889679,438.319031 487.570374,430.966003 
	C489.433960,429.885406 491.467285,428.928619 492.184692,426.635773 
	C492.890472,424.380096 494.642090,423.200806 496.536469,422.062134 
	C501.390259,419.144531 506.262726,416.248627 510.994598,413.141296 
	C513.653625,411.395111 516.900085,410.331665 519.732056,406.353607 
	C430.544586,405.289734 342.521667,404.239746 253.499146,403.165344 
M285.302124,569.239624 
	C307.667419,609.151611 330.032715,649.063599 352.621704,689.374817 
	C353.737793,686.519653 353.637115,684.066772 353.644318,681.637085 
	C353.664124,674.972107 353.625397,668.306763 353.682312,661.642151 
	C353.695953,660.044861 353.145111,657.890747 355.050598,657.190308 
	C358.348907,655.977661 357.732727,653.369690 357.749512,650.969910 
	C357.853271,636.140991 357.693695,621.305664 358.109222,606.486145 
	C358.241547,601.766357 357.376007,597.771851 355.061981,593.711853 
	C331.231323,551.900513 307.500488,510.032288 283.778290,468.159241 
	C282.426117,465.772461 280.747345,463.888611 278.369080,462.460419 
	C265.232117,454.571167 252.157211,446.578583 239.032944,438.668030 
	C237.199814,437.563110 235.386475,436.146210 233.087738,436.298462 
	C229.200150,436.556000 225.992126,434.868408 222.778030,433.051056 
	C217.054031,429.814514 211.300720,426.629791 205.559677,423.423401 
	C205.220734,423.753571 204.881805,424.083740 204.542862,424.413940 
	C231.356293,472.468445 258.169739,520.522949 285.302124,569.239624 
M418.264130,524.690491 
	C404.487488,548.080383 390.709564,571.469482 376.935944,594.861145 
	C375.498322,597.302734 374.206360,599.715820 374.211792,602.749390 
	C374.241730,619.409424 374.132538,636.069641 374.099365,652.729797 
	C374.096466,654.197693 373.637726,656.220581 375.057739,656.912231 
	C378.859619,658.764160 378.101837,662.080566 378.136871,665.123535 
	C378.217712,672.144470 378.162506,679.166870 378.162506,686.188721 
	C378.580841,686.263245 378.999176,686.337769 379.417511,686.412292 
	C428.414978,601.809631 477.412445,517.206970 526.409912,432.604340 
	C519.988770,435.128540 514.348450,438.306183 508.722351,441.508820 
	C507.279938,442.329956 505.927795,443.451080 504.102875,442.771332 
	C500.545624,441.446259 497.681183,443.030762 494.748688,444.781006 
	C480.451324,453.314453 466.125061,461.799774 451.770752,470.237000 
	C450.415771,471.033447 449.404877,471.983765 448.622742,473.309418 
	C438.638123,490.232330 428.635559,507.144653 418.264130,524.690491 
M278.653534,628.119934 
	C271.663086,637.379578 264.033234,646.165771 257.554810,655.884399 
	C258.268219,656.672546 258.634308,657.250549 259.149567,657.621033 
	C278.598419,671.608032 299.998108,681.286560 323.387177,686.483398 
	C327.323975,687.358093 329.101166,685.274353 327.918762,681.395569 
	C327.440887,679.827942 326.533752,678.375244 325.718292,676.928711 
	C304.215424,638.784607 282.697601,600.648865 261.185211,562.510071 
	C240.981995,526.692383 220.782425,490.872650 200.580032,455.054474 
	C199.093246,452.418488 197.756134,449.661285 193.854416,450.371887 
	C190.158020,451.045074 190.061142,454.177002 189.308273,456.794403 
	C183.839447,475.807159 181.253372,495.176422 182.136002,514.983398 
	C182.418930,521.332764 183.074966,522.011047 189.564240,521.560181 
	C201.020050,520.764221 212.483383,520.064819 223.929672,519.150818 
	C227.847610,518.838013 230.385437,519.916260 232.411804,523.587402 
	C248.263062,552.305115 264.091492,581.040344 280.445221,609.472107 
	C284.445190,616.426147 285.863220,621.984070 278.653534,628.119934 
M402.428955,684.215210 
	C403.271149,687.827087 405.842194,686.606873 408.011719,686.113342 
	C428.869354,681.368835 448.027557,672.739868 465.941589,661.102295 
	C469.916107,658.520264 470.204498,656.349670 467.449249,652.800720 
	C460.299805,643.591797 453.464447,634.136292 446.200226,625.021057 
	C444.026093,622.293030 444.027985,620.279724 445.690979,617.478149 
	C463.544342,587.401123 481.367645,557.305908 499.046814,527.126404 
	C501.008270,523.778076 503.304565,522.486450 507.086060,522.740540 
	C518.206604,523.487549 529.343994,523.980774 540.470093,524.650391 
	C544.503967,524.893250 547.633240,524.651917 547.832703,519.242371 
	C548.560486,499.498840 547.445679,479.989685 542.005249,460.860657 
	C541.176147,457.945129 540.071960,456.305786 536.871948,455.783051 
	C533.470825,455.227570 532.051147,456.959625 530.638733,459.444061 
	C526.029297,467.552399 521.326294,475.607574 516.659729,483.683472 
	C481.412292,544.682373 446.124390,605.657959 410.987732,666.720642 
	C407.869446,672.139771 403.593811,677.039124 402.428955,684.215210 
M334.396179,383.394501 
	C327.068634,383.383453 319.737274,383.227753 312.415161,383.421631 
	C308.687836,383.520325 306.814453,382.206390 305.497131,378.583984 
	C301.518402,367.643372 297.012024,356.895905 292.874176,346.011230 
	C291.469879,342.317261 289.845612,341.230560 285.864380,343.097656 
	C267.108856,351.893585 250.672928,363.908295 235.841263,378.240112 
	C234.412827,379.620422 232.835907,381.046234 234.188263,383.401703 
	C235.427231,385.559692 236.352493,387.903595 239.505737,387.966095 
	C245.494446,388.084808 251.477829,388.485474 257.466553,388.589417 
	C292.094177,389.190430 326.725250,388.698669 361.361115,389.484100 
	C405.137482,390.476837 448.939270,390.354858 492.730347,390.684875 
	C498.689758,390.729797 499.332794,389.772766 498.056183,383.917297 
	C497.675690,382.172089 496.713562,380.931152 495.542664,379.721466 
	C481.268463,364.974213 464.742615,353.344025 446.502258,344.028992 
	C443.190155,342.337524 441.489258,342.867188 440.124329,346.415497 
	C435.942413,357.286865 431.250275,367.968292 427.301178,378.919983 
	C425.604950,383.624084 423.217804,385.397064 418.244873,385.130035 
	C390.640472,383.647614 362.971497,384.992493 334.396179,383.394501 
M355.609711,553.147095 
	C355.357086,559.051270 357.409027,562.501831 362.157928,564.062317 
	C366.444794,565.470947 369.804596,563.694092 372.137695,560.367737 
	C374.957764,556.347229 374.610840,552.122559 371.061462,548.593872 
	C368.999298,546.543762 369.656036,544.889038 370.961243,542.894409 
	C381.348419,527.020691 391.712799,511.131958 402.024658,495.209290 
	C403.342224,493.174744 404.801697,492.401001 407.348816,492.548370 
	C412.442932,492.843140 416.800964,489.442261 417.451965,484.781036 
	C418.074524,480.323608 415.995087,477.024597 411.965698,475.112000 
	C407.629211,473.053589 403.133820,474.248077 400.302673,478.799072 
	C398.622620,481.499695 396.690765,482.247528 393.789703,482.239899 
	C375.645874,482.192139 357.501648,482.212708 339.357941,482.301361 
	C336.419434,482.315704 334.563904,481.660767 333.213562,478.590454 
	C331.290833,474.218689 326.416138,472.253601 322.370911,473.650299 
	C318.206970,475.087982 315.777008,478.193024 315.518860,482.591858 
	C315.282654,486.616516 318.808685,490.697449 323.463196,491.581024 
	C326.021515,492.066650 327.608368,493.204529 328.917145,495.339691 
	C337.612915,509.526184 346.207916,523.779846 355.218689,537.764954 
	C358.479401,542.825745 360.956635,547.300110 355.609711,553.147095 
M217.799347,547.373840 
	C209.357788,548.029236 200.924484,548.850464 192.471237,549.270386 
	C188.215637,549.481812 186.629868,550.965637 188.092285,555.148621 
	C188.528610,556.396667 188.680069,557.741394 189.057907,559.013306 
	C195.466827,580.587341 205.253342,600.510803 218.705124,618.549622 
	C223.830536,625.422791 229.212967,632.164734 235.700714,637.622314 
	C237.923035,636.812195 238.736038,635.288818 239.717865,633.990967 
	C246.441681,625.102905 252.977600,616.066833 259.910309,607.345703 
	C262.550507,604.024414 262.432617,601.465698 260.321106,598.016724 
	C251.982620,584.396423 243.449234,570.864502 235.866257,556.825500 
	C231.882126,549.449341 227.247070,545.468323 217.799347,547.373840 
M466.705627,605.553101 
	C469.282532,611.414734 473.756104,615.971436 477.512604,620.999756 
	C482.164917,627.227051 486.460358,633.771301 491.641815,639.174011 
	C493.505798,639.120667 494.216766,638.077148 494.994507,637.278564 
	C517.018860,614.664062 532.785645,588.405151 541.314697,557.896667 
	C542.472778,553.754211 540.191040,552.770691 537.041870,552.543640 
	C525.759399,551.730225 514.467468,551.047180 503.179321,550.311768 
	C500.871002,550.161438 499.052368,550.700806 497.739349,552.930481 
	C487.517883,570.288086 477.211212,587.595581 466.705627,605.553101 
M338.341003,327.100281 
	C333.001312,327.485077 327.884949,328.992615 322.711548,330.212158 
	C319.569336,330.952881 318.705444,332.653381 320.060730,335.713562 
	C324.982300,346.826385 329.821106,357.976196 334.625275,369.140350 
	C335.771515,371.803986 337.601959,372.723938 340.478302,372.706207 
	C357.969360,372.598236 375.461792,372.566803 392.952637,372.682587 
	C396.605560,372.706757 398.902954,371.426605 400.362000,368.088837 
	C404.696106,358.173676 409.226562,348.344055 413.523773,338.413269 
	C415.645233,333.510590 415.026581,332.296082 409.945648,330.888489 
	C386.661438,324.437988 363.040222,323.756989 338.341003,327.100281 
z"/>
</svg>